<svg width="273" height="273" viewBox="0 0 273 273" fill="none" xmlns="http://www.w3.org/2000/svg">
<path fill-rule="evenodd" clip-rule="evenodd" d="M187.253 9.74709L187.218 9.78193C189.465 10.9471 191 13.2943 191 16C191 19.866 187.866 23 184 23C182.962 23 181.976 22.774 181.09 22.3684C167.272 16.9657 152.232 14 136.5 14C68.8451 14 14 68.8451 14 136.5C14 204.155 68.8451 259 136.5 259C204.155 259 259 204.155 259 136.5C259 120.768 256.034 105.728 250.632 91.9099C250.226 91.0238 250 90.0383 250 89C250 85.134 253.134 82 257 82C259.9 82 262.388 83.7631 263.45 86.2757L263.462 86.2712C269.617 101.817 273 118.764 273 136.5C273 211.887 211.887 273 136.5 273C61.1131 273 0 211.887 0 136.5C0 61.1131 61.1131 0 136.5 0C154.436 0 171.564 3.4593 187.253 9.74709Z" fill="url(#paint0_linear)"/>
<path d="M73.5 71.5C81.5 61.5 124.5 90 132.5 95C137.825 98.328 141.673 97.2719 143.583 95.8632C149.056 90.4088 165.3 75.6 186.5 60C213 40.5 251 15 259.5 10C266.3 6 269.667 8.33333 270.5 10C272.333 12.5 273.3 19.1 262.5 25.5C251.7 31.9 225.333 58.8333 213.5 71.5C201.333 84 175.7 110.6 170.5 117C165.3 123.4 168.333 129 170.5 131C174 135.5 182.2 146.2 187 153C199 169.5 205 186 199.5 193.5C195.1 199.5 180 186 173 178.5C167.167 172.833 153.8 159.8 147 153C140.2 146.2 133.833 150.167 131.5 153C129.667 154.5 123.5 159.5 113.5 167.5C96 182 82 195.5 75 189.5C69.4 184.7 79 170.5 84.5 164C91.3333 155 106.2 135.4 111 129C115.8 122.6 113 118.333 111 117C108.667 114.833 102.8 109.4 98 105C92 99.5 65.5 81.5 73.5 71.5Z" fill="url(#paint1_linear)"/>
<defs>
<linearGradient id="paint0_linear" x1="309" y1="289" x2="49" y2="19" gradientUnits="userSpaceOnUse">
<stop stop-color="#F83D3D"/>
<stop offset="1" stop-color="#F83D3D" stop-opacity="0.54"/>
</linearGradient>
<linearGradient id="paint1_linear" x1="206" y1="217.5" x2="89" y2="-15.5" gradientUnits="userSpaceOnUse">
<stop stop-color="#F83D3D"/>
<stop offset="1" stop-color="#F83D3D" stop-opacity="0.34"/>
</linearGradient>
</defs>
</svg>
